<?xml version="1.0" standalone="no"?><!DOCTYPE svg PUBLIC "-//W3C//DTD SVG 1.1//EN" "http://www.w3.org/Graphics/SVG/1.1/DTD/svg11.dtd"><svg t="1742051860112" class="icon" viewBox="0 0 1024 1024" version="1.1" xmlns="http://www.w3.org/2000/svg" p-id="11650" xmlns:xlink="http://www.w3.org/1999/xlink" width="256" height="256"><path d="M933.133617 0H179.5387C118.591488 0 69.216532 50.773271 69.216532 113.552756v796.894439c0 62.68305 49.374956 113.552756 110.322168 113.552757h745.687209a29.509251 29.509251 0 0 0 29.557469-29.557469V21.649761A21.794414 21.794414 0 0 0 933.133617 0z m-737.731283 62.68305h218.474539v415.877929l-90.793988-67.504823-15.381456-11.572255-15.71898 11.186513-96.435462 69.28888z m703.930654 904.323544H179.394047s-56.173657-9.884635-55.016431-56.94514c0-28.400244 24.735696-56.848705 55.016431-56.848705h719.938941z m0 0" fill="#929292" p-id="11651"></path></svg>